# xmcd CD database file
#
# Track frame offsets:
#	150
#	20537
#	40387
#	64537
#	85000
#
# Disc length: 1395 seconds
#
# Revision: 0
# Processed by: cddbd v1.5.1PL0 Copyright (c) Steve Scherf et al.
# Submitted via: CDex 1.60beta1
#
DISCID=34057105
DTITLE=柴咲コウ - [Single]Sweet Mom
DYEAR=2005
DGENRE=General Pop
TTITLE0=Sweet Mom
TTITLE1=Memory Pocket -メモポケ-
TTITLE2=あどけない温もり
TTITLE3=Sweet Mom(Back Track)
TTITLE4=Memory Pocket -メモポケ-(Back Track)
EXTD=YEAR: 2005
EXTT0=
EXTT1=
EXTT2=
EXTT3=
EXTT4=
PLAYORDER=
